<svg xmlns="http://www.w3.org/2000/svg" width="32" height="32" viewBox="0 0 32 32" fill="none">
  <!-- Pizza Slice drop shadow -->
  <path d="M3 3 L25 14 C23 23 16 28 8 28 L3 3 Z" fill="rgba(0,0,0,0.25)" transform="translate(1,1)" />
  
  <!-- Crust at bottom/back -->
  <path d="M7 23 C12 28 19 26 26 14 C27.5 15.5 28 18 26.5 20 C23.5 27 15.5 30 7 26 Z" fill="#B07228" stroke="#693F10" stroke-width="1.2" stroke-linejoin="round" />
  
  <!-- Golden Melted Cheese Body -->
  <path d="M3 3 L24 13.5 C22 21 16 25 8 24 C7 24 5.5 23 6.5 21 C7 20 7.5 19 6.5 17 C6 16 4.5 16 5 14 L3 3 Z" fill="#FFBF1A" stroke="#7A4B12" stroke-width="1.2" stroke-linejoin="round" />
  
  <!-- Cheese Dripping overlay -->
  <path d="M7.5 24 C10 25.5 13 25 15 23.5 C16 24.5 17 24.5 18 23 C19 22 21 20 22 17" stroke="#F5A300" stroke-width="1.5" stroke-linecap="round" fill="none" />
  
  <!-- Pepperoni 1 (near tip) -->
  <circle cx="8" cy="9" r="2.6" fill="#B82824" stroke="#781410" stroke-width="0.9" />
  <circle cx="7.3" cy="8.3" r="0.8" fill="#D94843" />

  <!-- Pepperoni 2 (mid right) -->
  <circle cx="16" cy="13.5" r="3" fill="#B82824" stroke="#781410" stroke-width="0.9" />
  <circle cx="15.2" cy="12.7" r="0.9" fill="#D94843" />

  <!-- Pepperoni 3 (mid left) -->
  <circle cx="11.5" cy="16" r="2.8" fill="#B82824" stroke="#781410" stroke-width="0.9" />
  <circle cx="10.8" cy="15.2" r="0.8" fill="#D94843" />

  <!-- Pepperoni 4 (bottom left) -->
  <circle cx="7.5" cy="20.5" r="2.2" fill="#B82824" stroke="#781410" stroke-width="0.8" />

  <!-- Pepperoni 5 (bottom right) -->
  <circle cx="17.5" cy="20" r="2.5" fill="#B82824" stroke="#781410" stroke-width="0.8" />

  <!-- Pointer indicator tip highlight -->
  <circle cx="3" cy="3" r="1" fill="#FFF7D6" />
</svg>